<?xml version="1.0" encoding="UTF-8" standalone="no"?>
<!-- Created with Inkscape (http://www.inkscape.org/) -->
<svg
   xmlns:dc="http://purl.org/dc/elements/1.1/"
   xmlns:cc="http://web.resource.org/cc/"
   xmlns:rdf="http://www.w3.org/1999/02/22-rdf-syntax-ns#"
   xmlns:svg="http://www.w3.org/2000/svg"
   xmlns="http://www.w3.org/2000/svg"
   xmlns:sodipodi="http://sodipodi.sourceforge.net/DTD/sodipodi-0.dtd"
   xmlns:inkscape="http://www.inkscape.org/namespaces/inkscape"
   width="319.658433617"
   height="312.833917343" viewBox="0 0 399.99997 391.46021"
   id="svg2217"
   sodipodi:version="0.32"
   inkscape:version="0.45"
   sodipodi:modified="true"
   version="1.0">
  <defs
     id="defs2219" />
  <sodipodi:namedview
     id="base"
     pagecolor="#ffffff"
     bordercolor="#666666"
     borderopacity="1.0"
     gridtolerance="10000"
     guidetolerance="10000"
     objecttolerance="10000"
     inkscape:pageopacity="0.0"
     inkscape:pageshadow="2"
     inkscape:zoom="0.35"
     inkscape:cx="375"
     inkscape:cy="520"
     inkscape:document-units="px"
     inkscape:current-layer="layer1"
     borderlayer="true"
     showgrid="false"
     gridspacingx="0px"
     gridspacingy="0px"
     gridempspacing="0"
     inkscape:object-bbox="true"
     inkscape:object-points="true"
     inkscape:object-nodes="true"
     inkscape:grid-points="true"
     inkscape:guide-points="true"
     inkscape:window-width="673"
     inkscape:window-height="577"
     inkscape:window-x="110"
     inkscape:window-y="145" />
  <metadata
     id="metadata2222">
    <rdf:RDF>
      <cc:Work
         rdf:about="">
        <dc:format>image/svg+xml</dc:format>
        <dc:type
           rdf:resource="http://purl.org/dc/dcmitype/StillImage" />
      </cc:Work>
    </rdf:RDF>
  </metadata>
  <g
     inkscape:label="Layer 1"
     inkscape:groupmode="layer"
     id="layer1"
     transform="translate(-311.08603,-134.72988)">
    <path
       style="fill:#19338f;overflow:visible"
       d="M 610.28622,206.19529 C 608.95759,206.19529 607.62374,206.19529 606.28988,206.46105 C 601.75686,190.72573 593.22227,176.59519 580.69135,164.06427 C 560.95447,144.59309 537.22125,134.72988 509.48903,134.72988 C 481.49116,134.72988 457.75789,144.59309 438.28938,164.06427 C 426.28986,176.06373 417.75789,189.6628 413.22487,204.59573 C 412.69085,204.59573 412.15677,204.59573 411.89101,204.59573 C 383.89053,204.59573 359.89155,214.45894 340.4256,233.93012 C 320.69134,253.66178 310.82551,277.39499 311.09126,305.39553 C 310.82551,333.39602 320.69134,357.12406 340.4256,376.59001 C 344.69031,381.12303 349.49165,385.1246 354.55875,388.5947 C 350.02311,400.05747 347.89209,412.32269 348.1578,425.3903 C 347.89209,453.39084 357.75792,477.12928 377.49219,496.59518 C 396.95814,516.32166 420.95706,526.1901 448.9576,526.1901 C 472.15674,526.1901 492.42247,519.2603 509.7574,505.66123 C 527.62374,519.2603 548.42355,526.1901 571.62007,526.1901 C 599.35491,526.1901 623.08813,516.32166 642.81978,496.59518 C 662.55666,477.12928 672.41988,453.39084 672.41988,425.3903 C 672.41988,413.39601 670.55456,401.92278 666.81875,391.52288 C 671.88841,387.26084 676.6872,382.72782 681.48592,378.1948 C 700.95705,358.72885 710.82032,334.99563 711.08602,306.99509 C 710.82032,278.99455 700.95187,255.26134 681.48592,235.52968 C 661.75427,216.06373 638.02105,206.19529 610.28622,206.19529 L 610.28622,206.19529 z M 601.75686,209.92592 C 601.75686,210.46261 602.02262,210.99407 602.81978,211.25977 C 603.09071,211.52553 603.62217,211.79646 604.42457,211.79646 C 606.28988,211.52553 608.4209,211.52553 610.28622,211.52553 C 636.6872,211.52553 659.08656,220.86251 677.75529,239.26549 C 696.42403,257.92904 705.75583,280.59416 705.75583,306.99509 C 705.49007,333.39602 696.15309,356.06114 677.75529,374.46417 C 672.68563,379.25772 667.35539,383.79074 662.01997,388.32371 C 661.48851,388.5947 661.22281,389.12616 661.22281,389.92855 C 660.95705,390.46001 660.95705,390.99147 661.22281,391.52288 C 665.22437,401.92278 667.08969,413.39601 667.08969,425.3903 C 667.08969,451.79645 657.75271,474.46157 639.08915,492.8646 C 620.42042,511.52811 598.02105,520.85468 571.62007,520.85468 C 548.68925,520.85468 528.69184,513.92488 511.35696,500.05488 C 510.82289,499.79435 510.28886,499.52342 509.7574,499.52342 C 508.95757,499.52342 508.42355,499.79435 508.15518,500.32581 C 491.35699,513.92488 471.62272,520.85468 448.9576,520.85468 C 422.55667,520.85468 399.89155,511.52811 381.22538,492.86455 C 362.55665,474.46157 353.2249,451.79645 353.4906,425.3903 C 353.2249,412.32269 355.35853,400.05747 360.42563,388.5947 C 360.69133,388.06324 360.69133,387.53178 360.42563,386.72938 C 360.15726,386.19792 359.89155,385.656 359.35748,385.39553 C 353.75897,381.6649 348.69187,377.3924 344.15885,372.85938 C 325.49268,354.45635 316.15831,331.79646 316.42407,305.39553 C 316.15831,278.99455 325.49268,256.32426 344.15885,237.6607 C 362.82497,219.2629 385.49009,209.92592 411.89101,209.92592 C 412.95655,209.92592 414.0247,209.92592 415.35855,209.92592 C 415.88996,209.92592 416.42404,209.66022 416.95811,209.39446 C 417.22382,209.12875 417.49219,208.59206 417.75789,208.0606 C 422.02521,193.12768 430.02311,179.79959 442.02518,167.7949 C 460.42298,149.39187 483.09072,140.06007 509.48903,140.06007 C 535.8874,140.06007 558.29199,149.39187 576.95549,167.7949 C 589.22071,180.06529 597.48959,194.19583 601.75686,209.92592 L 601.75686,209.92592 z "
       id="path17" />
    <path
       style="fill:#19338f;overflow:visible"
       d="M 604.95603,222.46207 C 601.75686,222.46207 598.82345,221.6649 596.42144,219.79436 C 593.75373,217.92905 592.15418,215.52709 591.35696,212.59363 C 587.35539,198.72885 580.15466,186.45841 569.2233,175.53227 C 552.69081,158.99456 532.68823,150.72573 509.48903,150.72573 C 486.02413,150.72573 466.02416,158.99456 449.48906,175.26134 L 449.2233,175.53227 C 438.8234,185.93217 431.89104,197.6607 428.15779,210.99407 C 427.35802,213.92748 425.75584,216.06373 423.35645,217.92905 C 420.95706,219.79436 418.28935,220.59675 415.35594,220.59675 C 414.0247,220.59675 412.95655,220.59675 411.6227,220.59675 C 388.1578,220.59675 368.15782,228.86564 351.62529,245.13237 L 351.35697,245.39812 C 335.09019,261.92543 326.82397,281.92802 326.82397,305.39553 C 326.82397,328.86299 335.09019,348.8604 351.62529,365.12718 C 355.88999,369.38928 360.42302,373.13031 365.22436,376.59001 C 367.89207,378.1948 369.75738,380.59157 370.55716,383.79074 C 371.35699,386.72938 371.35699,389.65757 370.02314,392.59626 C 366.02414,402.72518 363.8905,413.65654 363.8905,425.3903 C 363.8905,448.85781 372.15677,468.85517 388.69187,485.12195 C 405.22436,501.9306 425.22438,510.19425 448.68928,510.19425 C 468.68925,510.19425 486.28989,504.05644 501.22282,491.79122 C 503.62215,489.92591 506.55562,488.86304 509.7574,488.86304 C 512.69081,488.59205 515.62428,489.65498 518.28938,491.79122 C 533.49062,504.05644 551.35696,510.19425 571.62007,510.19425 C 594.82188,510.19425 614.81924,501.9306 631.35696,485.39288 L 631.62271,485.12195 C 648.1552,468.85522 656.41885,448.85781 656.41885,425.3903 C 656.41885,414.45894 654.55354,404.33002 651.08861,394.99304 C 650.02051,392.32533 650.02051,389.65762 650.82291,386.72938 C 651.62007,383.79074 652.95393,381.6649 655.35593,379.78918 C 660.42042,375.79802 665.49008,371.52552 670.0231,366.9925 L 670.28886,366.73197 C 686.55564,350.46519 694.81924,330.4626 694.81924,306.99509 C 694.81924,283.52758 686.55564,263.52499 670.0231,246.99251 C 653.49061,230.4652 633.48803,222.19637 610.28622,222.19637 C 608.4209,222.19637 606.55559,222.19637 604.95603,222.46207 L 604.95603,222.46207 z M 595.62428,259.79436 C 618.28934,282.46465 629.7574,309.65757 629.7574,341.9306 C 629.7574,374.19323 618.28934,401.39132 595.62428,424.05644 C 572.95393,446.72156 545.75584,457.92386 513.75635,458.19479 C 481.49116,457.92386 454.2904,446.72156 431.62272,424.05644 C 408.9576,401.39132 397.75792,374.19323 397.75792,341.9306 C 397.75792,309.65757 408.9576,282.46465 431.62272,259.79436 C 454.2904,237.12924 481.49116,225.93217 513.75635,225.93217 C 545.75584,225.93217 572.95393,237.12924 595.62428,259.79436 L 595.62428,259.79436 z "
       id="path19" />
    <path
       style="fill:#19338f;overflow:visible"
       d="M 619.6232,341.9306 C 619.6232,312.59104 609.2233,287.52914 588.42354,266.72939 C 567.88944,246.19529 542.82237,235.79538 513.49059,235.79538 C 484.15626,235.79538 459.08913,246.19529 438.5577,266.72939 C 418.02365,287.52914 407.62375,312.59104 407.62375,341.9306 C 407.62375,371.265 418.02365,396.32684 438.5577,416.85571 C 459.08913,437.65552 484.15626,448.05542 513.49059,448.05542 C 542.82237,448.05542 567.88944,437.65552 588.42354,416.85571 C 609.2233,396.32684 619.6232,371.265 619.6232,341.9306 L 619.6232,341.9306 z M 584.68769,270.45997 C 604.42457,290.19685 614.28778,313.92489 614.28778,341.9306 C 614.28778,369.93114 604.42457,393.65913 584.68769,413.12508 C 565.22173,432.86196 541.48852,442.73041 513.49059,442.73041 C 485.49011,442.73041 461.75684,432.86196 442.29094,413.12508 C 422.55667,393.65913 412.69085,369.93114 412.95655,341.9306 C 412.69085,313.92489 422.55667,290.19685 442.29094,270.45997 C 461.75684,250.99407 485.49011,241.1308 513.49059,241.1308 C 541.48852,241.1308 565.22173,250.99407 584.68769,270.45997 L 584.68769,270.45997 z "
       id="path21" />
    <path
       style="fill:#fb0f0c;overflow:visible"
       d="M 573.49062,268.5947 C 572.68822,267.79226 571.62007,267.26085 570.55715,267.26085 L 520.68871,267.26085 C 519.62062,267.26085 518.82345,267.79226 518.02362,268.5947 C 517.22384,269.39187 516.68976,270.19426 516.68976,271.26241 L 516.68976,293.92748 C 516.68976,294.99563 517.22384,296.06373 518.02362,296.86094 C 518.82345,297.66334 519.62062,297.92904 520.68871,297.92904 L 570.82291,297.92904 C 570.82291,298.4605 570.82291,298.99719 570.82291,299.52865 C 570.02052,304.59831 569.2233,308.86041 568.1552,312.86197 L 568.1552,312.59104 C 566.82135,316.06114 564.95603,318.99455 562.55403,321.12562 L 550.82032,308.86041 C 550.55457,308.32894 550.0231,308.05801 549.49164,307.79231 C 548.95501,307.52655 548.42355,307.52655 547.88686,307.52655 L 524.69028,307.26085 C 523.62218,307.26085 522.82501,307.79231 522.02257,308.5947 C 521.22017,309.39187 520.68871,310.19426 520.68871,311.26241 C 520.68871,312.32528 521.22017,313.39343 522.02257,314.19059 C 522.82501,314.99299 523.62218,315.25874 524.69028,315.25874 L 546.02154,315.52445 L 556.15574,326.46104 C 548.95501,330.99406 536.95549,333.12508 520.1573,332.59362 C 518.82345,332.59362 518.02362,332.86456 517.22384,333.66177 C 516.42145,334.45894 515.88998,335.26133 515.88998,336.59519 C 515.88998,337.65811 516.15574,338.4605 516.95552,339.26289 C 517.7553,340.06529 518.55769,340.59675 519.89155,340.59675 C 539.6232,341.39914 553.48803,338.73143 561.75686,332.59362 L 571.08861,342.46206 C 571.89101,343.26446 572.68822,343.52499 574.02208,343.52499 C 575.09018,343.52499 576.1531,343.26446 576.95549,342.46206 C 577.75788,341.65967 578.02364,340.85728 578.02364,339.79436 C 578.02364,338.4605 577.75788,337.65811 576.95549,336.86612 L 567.88944,326.9925 C 571.35437,324.05904 574.02208,320.05747 575.62164,315.25874 L 575.88739,315.25874 C 577.22125,310.72572 578.02364,305.92699 578.82081,300.59675 C 578.82081,300.33105 578.82081,300.33105 578.82081,300.06529 C 578.82081,299.79436 578.82081,299.79436 578.82081,299.52865 C 578.82081,298.4605 578.82081,297.66334 579.08656,296.86094 C 579.08656,296.06373 579.08656,295.52709 579.08656,294.99563 C 579.08656,294.72987 579.08656,294.19841 579.08656,293.92748 C 579.08656,292.86456 578.82081,292.06216 578.02364,291.265 C 577.22125,290.46261 576.15833,289.93114 575.09018,289.93114 L 524.69028,289.93114 L 524.69028,275.26398 L 570.55715,275.26398 C 571.62007,275.26398 572.68822,274.99822 573.49062,274.19582 C 574.28778,273.39343 574.55354,272.33051 574.55354,271.26241 C 574.55354,270.19426 574.28778,269.39187 573.49062,268.5947 L 573.49062,268.5947 z "
       id="path23" />
    <path
       style="fill:#fb0f0c;overflow:visible"
       d="M 577.22125,356.33207 C 577.22125,355.25874 576.95549,354.45635 576.15833,353.66436 C 575.35593,352.86197 574.28778,352.33051 573.22486,352.33051 C 560.1573,352.33051 547.3554,352.33051 534.55872,352.33051 L 534.28778,352.33051 C 533.75632,352.33051 533.49062,352.33051 533.22486,352.33051 C 527.08705,352.33051 522.55403,351.25718 519.08915,348.8604 C 515.62428,346.46363 513.22228,345.3903 512.4225,345.66123 C 511.35696,345.93217 509.22333,346.99509 506.28986,348.8604 C 503.09069,350.72572 497.48957,351.79905 489.75738,352.33051 L 452.15677,352.33051 C 450.82291,352.33051 450.02314,352.86197 449.2233,353.66436 C 448.42352,354.45635 448.15782,355.25874 448.15782,356.33207 L 448.15782,387.53178 C 447.88945,396.8583 446.82397,403.25664 445.22435,407.2582 C 444.69028,408.33158 444.69028,409.39445 445.22435,410.45737 C 445.49011,411.25977 446.28989,412.06216 447.35799,412.59362 C 448.42352,412.86455 449.48906,412.86455 450.28884,412.59362 C 451.35699,412.32269 452.15677,411.5307 452.69084,410.45737 C 454.55616,405.92435 455.62426,398.19215 456.15572,387.79231 L 456.15572,360.32323 L 485.75581,360.32323 L 485.75581,409.39445 C 485.75581,410.45737 486.28989,411.5307 487.08967,412.32269 C 487.88945,413.12508 488.68928,413.39601 489.75738,413.39601 C 490.82291,413.39601 491.89101,413.12508 492.69084,412.32269 C 493.49062,411.5307 493.75633,410.45737 493.75633,409.39445 L 493.75633,360.0627 C 500.42298,359.26031 506.82394,357.66592 512.69081,355.25874 C 518.55769,358.19738 524.42457,360.0627 530.29145,360.32323 L 530.29145,409.39445 C 530.29145,410.45737 530.82291,411.5307 531.62008,412.32269 C 532.42247,413.12508 533.22486,413.39601 534.28778,413.39601 C 535.35594,413.39601 536.42403,413.12508 537.22125,412.32269 C 538.02364,411.5307 538.28935,410.45737 538.28935,409.39445 L 538.28935,360.32323 C 548.68925,360.32323 558.82345,360.32323 569.2233,360.32323 L 569.2233,384.32215 C 569.2233,396.8583 570.82291,405.66382 574.28778,410.45737 C 574.82447,411.25977 575.62164,412.06216 576.68979,412.32269 C 577.75788,412.59362 578.82081,412.32269 579.6232,411.79123 C 580.42042,410.98883 581.22281,410.19684 581.48852,409.12352 C 581.75427,408.0606 581.48852,406.99767 580.95705,406.19528 C 578.5551,402.19372 577.22125,394.72205 577.22125,384.32215 L 577.22125,356.33207 L 577.22125,356.33207 z "
       id="path25" />
    <path
       style="fill:#fb0f0c;overflow:visible"
       d="M 503.09069,271.26241 C 503.09069,270.19426 502.82237,269.39187 502.02259,268.5947 C 501.22282,267.79226 500.15728,267.26085 499.08913,267.26085 L 453.22487,267.26085 C 451.89101,267.26085 451.09123,267.79226 450.29145,268.5947 C 449.48906,269.39187 449.2233,270.19426 449.2233,271.26241 C 449.2233,272.33051 449.48906,273.39343 450.29145,274.19582 C 451.09123,274.99822 451.89101,275.26398 453.22487,275.26398 L 471.35696,275.26398 L 471.35696,332.59362 L 455.62426,332.59362 L 455.62426,301.39397 C 455.35594,300.33105 455.09018,299.52865 454.2904,298.73144 C 453.49062,297.92904 452.69084,297.39758 451.62269,297.39758 C 450.29145,297.39758 449.48906,297.92904 448.68928,298.73144 C 447.88945,299.52865 447.62374,300.33105 447.62374,301.39397 L 447.62374,335.26133 C 447.62374,335.53226 447.62374,335.79279 447.62374,336.06373 C 447.62374,336.32425 447.62374,336.32425 447.62374,336.59519 C 447.62374,337.65811 447.88945,338.73143 448.68928,339.52342 C 449.48906,340.32582 450.29145,340.59675 451.62269,340.59675 L 499.3575,340.59675 C 500.42298,340.59675 501.48852,340.32582 502.29091,339.52342 C 503.09069,338.73143 503.35645,337.65811 503.35645,336.59519 C 503.35645,335.53226 503.09069,334.72987 502.29091,333.92748 C 501.48852,333.12508 500.42298,332.59362 499.3575,332.59362 L 479.08916,332.59362 L 479.08916,311.26241 C 486.82396,311.26241 494.2904,311.26241 501.75684,311.26241 C 502.82237,311.26241 503.89052,310.99142 504.6903,310.19426 C 505.49008,309.39187 505.75584,308.32894 505.75584,307.26085 C 505.75584,306.99509 505.75584,306.99509 505.75584,306.72416 C 505.75584,306.45845 505.75584,306.1927 505.75584,305.92699 L 505.75584,297.39758 C 505.75584,296.32948 505.49008,295.52709 504.6903,294.72987 C 503.89052,293.92748 502.82237,293.39602 501.75684,293.39602 C 500.68874,293.39602 499.88896,293.92748 499.08913,294.72987 C 498.28935,295.52709 497.75527,296.32948 497.75527,297.39758 L 497.75527,303.26446 C 491.62269,303.26446 485.22435,303.26446 479.08916,303.26446 L 479.08916,275.26398 L 499.08913,275.26398 C 500.15728,275.26398 501.22282,274.99822 502.02259,274.19582 C 502.82237,273.39343 503.09069,272.33051 503.09069,271.26241 L 503.09069,271.26241 z "
       id="path27" />
  </g>
</svg>
